<svg xmlns="http://www.w3.org/2000/svg" width="1200" height="675" viewBox="0 0 1200 675" role="img" aria-label="Service placeholder image">
  <defs>
    <linearGradient id="bg" x1="0" y1="0" x2="1" y2="1">
      <stop offset="0%" stop-color="#eef4fb" />
      <stop offset="100%" stop-color="#dbe7f5" />
    </linearGradient>
  </defs>
  <rect width="1200" height="675" fill="url(#bg)"/>
  <g opacity="0.9">
    <circle cx="600" cy="300" r="88" fill="#ffffff" stroke="#9fb8d7" stroke-width="10"/>
    <path d="M644 264l-18-18-14 14 18 18-38 38-18-18-14 14 18 18-39 39c-7 7-7 18 0 25 7 7 18 7 25 0l39-39 18 18 14-14-18-18 38-38 18 18 14-14-18-18z" fill="#2f4f7f"/>
  </g>
  <text x="600" y="455" text-anchor="middle" font-family="Segoe UI, Arial, sans-serif" font-size="42" font-weight="600" fill="#2f4f7f">Service Image</text>
  <text x="600" y="505" text-anchor="middle" font-family="Segoe UI, Arial, sans-serif" font-size="24" fill="#5d7599">No photo uploaded</text>
</svg>
